<?xml version="1.0" encoding="UTF-8"?>
<!-- Generator: Adobe Illustrator 21.1.0, SVG Export Plug-In . SVG Version: 6.00 Build 0)  -->
<svg xmlns="http://www.w3.org/2000/svg" xmlns:xlink="http://www.w3.org/1999/xlink" version="1.1" id="Layer_1" width="118" height="40" x="0px" y="0px" viewBox="0 0 118 40" style="enable-background:new 0 0 118 40;" xml:space="preserve">
<style type="text/css">
	.st0{fill:#FFFFFF;}
	.st1{fill:#ED1C24;}
</style>
<path d="M90.5,1.6C90.1,2,90,2.5,90,3c0,0.6,0.2,1.1,0.5,1.5c0.3,0.4,0.7,0.6,1.1,0.6c0.4,0,0.8-0.2,1.1-0.6C93,4.1,93.2,3.6,93.2,3  c0-0.6-0.2-1.1-0.5-1.5C92.4,1.2,92,1,91.6,1C91.1,1,90.8,1.2,90.5,1.6z"></path>
<g>
	<path class="st0" d="M21.5,28.3c-0.5-0.6-1-1.7-1.6-3.6l-7.4-23H12L4.5,24.5c-0.6,2-1.2,3.3-1.8,4c-0.3,0.3-0.8,0.6-1.7,0.8V30h6.7   v-0.8c-1-0.1-1.7-0.3-2-0.6c-0.3-0.3-0.5-0.7-0.5-1.1c0-0.5,0.2-1.3,0.5-2.4l1.4-4.4h8.2l1.3,4c0.4,1.3,0.6,2.2,0.6,2.8   c0,0.5-0.2,0.8-0.4,1.1c-0.3,0.3-0.9,0.5-1.7,0.6V30h8.4v-0.8C22.7,29.2,22,28.9,21.5,28.3z M7.7,19.2L11.4,8L15,19.2H7.7z"></path>
</g>
<g>
	<path class="st0" d="M35.8,27.5c-0.5,0.2-0.8,0.3-1.1,0.3c-0.2,0-0.4-0.1-0.6-0.3c-0.2-0.2-0.3-0.5-0.4-1c-0.1-0.5-0.1-1.8-0.1-4V1   h-0.7l-4.3,2.3L28.8,4c0.4-0.2,0.8-0.3,1.1-0.3c0.3,0,0.5,0.1,0.6,0.3c0.2,0.2,0.3,0.5,0.4,1C30.9,5.4,31,6.7,31,8.9v3.5   c-0.8-1-1.9-1.6-3.1-1.6c-2,0-3.7,1.1-5,3.3c-1.3,2.2-1.9,4.7-1.9,7.4c0,2.7,0.6,4.9,1.8,6.6c1.2,1.7,2.5,2.6,4.1,2.6   c0.8,0,1.5-0.2,2.2-0.6c0.7-0.4,1.4-1.1,2.1-2.1v2.7h0.7l4.3-2.3L35.8,27.5z M31,26.4c-0.9,1.2-1.8,1.9-2.8,1.9   c-1.1,0-2.1-0.7-3.1-2.2c-0.9-1.5-1.4-3.6-1.4-6.3c0-2.7,0.5-4.8,1.4-6.2c0.7-1.1,1.5-1.6,2.5-1.6c0.5,0,1,0.2,1.5,0.6   c0.5,0.4,0.9,1,1.2,1.7c0.3,0.8,0.5,1.6,0.6,2.5V26.4z"></path>
</g>
<path class="st0" d="M34.2,12.1c0.5,0.1,0.9,0.2,1.1,0.3c0.3,0.2,0.6,0.5,0.8,0.8c0.2,0.3,0.4,0.8,0.7,1.6l5.1,15.8h0.6l5.1-16  c0.3-1,0.6-1.6,1-2c0.2-0.2,0.6-0.4,1.1-0.4v-0.8H45v0.8c0.5,0,0.9,0,1.1,0.1c0.2,0.1,0.3,0.2,0.4,0.4c0.1,0.1,0.1,0.3,0.1,0.5  c0,0.4-0.1,1-0.4,1.7l-3.4,10.7l-3.3-10.3c-0.2-0.7-0.3-1.2-0.3-1.7c0-0.4,0.1-0.8,0.3-1c0.2-0.3,0.5-0.4,0.9-0.4h0.4v-0.8h-6.8  V12.1z"></path>
<g>
	<path class="st0" d="M56.8,26.2c-0.7,0.7-1.5,1-2.4,1c-1.4,0-2.6-0.8-3.7-2.3c-1-1.6-1.5-3.7-1.5-6.4v-0.1H59   c0-2.3-0.5-4.2-1.5-5.5c-1-1.4-2.4-2.1-4-2.1c-1.9,0-3.5,0.9-4.7,2.7c-1.3,1.8-1.9,4.3-1.9,7.5c0,3,0.6,5.3,1.8,7   c1.2,1.7,2.7,2.6,4.4,2.6c1.6,0,2.9-0.8,4-2.3c1.1-1.5,1.7-3.2,1.9-5.1l-0.5-0.4C58.1,24.4,57.5,25.5,56.8,26.2z M50.4,13.5   c0.7-0.9,1.5-1.3,2.3-1.3c0.6,0,1.1,0.2,1.6,0.6c0.5,0.4,0.9,1,1.2,1.8c0.2,0.5,0.3,1.3,0.3,2.5h-6.6   C49.3,15.6,49.7,14.4,50.4,13.5z"></path>
</g>
<path class="st0" d="M63,10.7L58.7,13l0.2,0.7c0.4-0.2,0.8-0.3,1.1-0.3c0.3,0,0.5,0.1,0.7,0.3c0.2,0.2,0.3,0.5,0.4,0.9  c0.1,0.4,0.1,1.7,0.1,3.9v7.2c0,1.1,0,1.7-0.1,2c-0.1,0.5-0.3,0.8-0.5,1c-0.4,0.3-0.9,0.4-1.6,0.4V30h7.3v-0.7  c-0.6,0-1.1-0.1-1.5-0.4c-0.3-0.2-0.6-0.6-0.7-0.9c-0.2-0.5-0.3-1.3-0.3-2.3v-9c0.5-1.3,1-2.2,1.5-2.8c0.2-0.3,0.4-0.4,0.6-0.4  c0.2,0,0.6,0.2,1,0.7c0.5,0.5,0.9,0.7,1.2,0.7c0.4,0,0.7-0.2,1-0.6c0.3-0.4,0.4-0.8,0.4-1.4c0-0.6-0.2-1.1-0.6-1.6  c-0.4-0.5-0.9-0.7-1.4-0.7c-1.3,0-2.5,1.4-3.7,4.2v-4.2H63z"></path>
<path class="st0" d="M87.7,1.7c-0.1,0.7-0.3,1.2-0.6,1.6c-0.2,0.3-0.5,0.4-0.7,0.4c-0.2,0-0.5-0.1-0.9-0.4c-1.5-1-3-1.5-4.5-1.5  c-2,0-3.8,0.6-5.5,1.9c-1.7,1.3-3,3.1-3.9,5.4c-0.9,2.3-1.4,4.9-1.4,7.6c0,3.4,0.7,6.4,2.2,8.9c1.9,3.4,4.7,5.1,8.2,5.1  c2,0,3.6-0.6,5.1-1.7c1.4-1.1,2.7-3,3.7-5.4l-0.5-0.4c-1.3,2.3-2.4,3.8-3.5,4.6c-1.1,0.8-2.3,1.1-3.6,1.1c-1.6,0-3-0.5-4.2-1.5  c-1.2-1-2.2-2.4-2.8-4.2c-0.6-1.8-0.9-4-0.9-6.5c0-3,0.3-5.6,1-7.6c0.7-2,1.5-3.5,2.7-4.5c1.1-0.9,2.4-1.4,3.8-1.4  c1.7,0,3.1,0.6,4.3,1.8c1.2,1.2,2.1,3.2,2.8,6h0.5l-0.5-9.4H87.7z"></path>
<path class="st1" d="M90.5,1.6C90.1,2,90,2.5,90,3c0,0.6,0.2,1.1,0.5,1.5c0.3,0.4,0.7,0.6,1.1,0.6c0.4,0,0.8-0.2,1.1-0.6  C93,4.1,93.2,3.6,93.2,3c0-0.6-0.2-1.1-0.5-1.5C92.4,1.2,92,1,91.6,1C91.1,1,90.8,1.2,90.5,1.6z"></path>
<path class="st0" d="M92.2,10.7L87.9,13l0.2,0.7c0.4-0.2,0.8-0.3,1.1-0.3c0.3,0,0.5,0.1,0.6,0.3c0.2,0.2,0.3,0.5,0.3,0.9  c0.1,0.6,0.1,1.9,0.1,3.9v7.2c0,1.2-0.1,1.9-0.2,2.4c-0.1,0.4-0.3,0.7-0.6,0.9c-0.2,0.2-0.7,0.3-1.4,0.3V30h7v-0.7  c-0.7,0-1.1-0.1-1.4-0.3c-0.3-0.2-0.5-0.5-0.6-0.9c-0.1-0.4-0.2-1.2-0.2-2.3v-15H92.2z"></path>
<path class="st0" d="M102.6,12.7c0.1,0.2,0.3,0.5,0.5,0.8c0.3,0.6,0.6,1.2,0.8,1.6l5.2,14.1l-1,3.2c-0.4,1.2-0.7,2-1.1,2.5  c-0.4,0.4-0.7,0.6-1,0.6c-0.1,0-0.4-0.1-0.8-0.3c-0.6-0.3-1.1-0.5-1.4-0.5c-0.5,0-0.9,0.2-1.2,0.5c-0.3,0.3-0.4,0.8-0.4,1.4  c0,0.6,0.2,1.1,0.6,1.6c0.4,0.5,0.9,0.7,1.5,0.7c0.8,0,1.7-0.5,2.6-1.4c0.9-0.9,1.7-2.3,2.2-4.1l5.8-18.7c0.3-0.9,0.4-1.4,0.5-1.6  c0.2-0.5,0.5-0.8,0.7-0.9c0.2-0.2,0.5-0.3,0.9-0.3v-0.8h-4.7v0.8c0.4,0,0.8,0,0.9,0.1c0.2,0.1,0.3,0.2,0.4,0.4  c0.1,0.1,0.1,0.3,0.1,0.6c0,0.5-0.1,1.1-0.3,1.7l-3.2,10.3l-3.5-9.4c-0.3-0.9-0.5-1.7-0.5-2.2c0-0.4,0.1-0.7,0.4-1  c0.2-0.3,0.6-0.4,1.1-0.4h0.3v-0.8l-5.8,0h-3.3V5.1h-0.5c-0.4,1.4-0.8,2.3-1,2.8c-0.5,1-1,1.8-1.6,2.5c-0.6,0.7-1.2,1.2-1.8,1.5v0.7  h2.3v12.6c0,1.3,0.1,2.3,0.3,3c0.2,0.6,0.6,1.1,1,1.5c0.5,0.3,0.9,0.5,1.4,0.5c0.7,0,1.4-0.3,2.1-1c0.7-0.7,1.2-1.7,1.5-3H102  c-0.2,0.5-0.4,1-0.7,1.2c-0.3,0.3-0.7,0.4-1,0.4c-0.4,0-0.8-0.2-1-0.6c-0.3-0.4-0.4-1.2-0.4-2.4V12.7h3.5L102.6,12.7z"></path>
</svg>
