<?xml version="1.0" encoding="UTF-8"?>
<!-- Generator: Adobe Illustrator 21.1.0, SVG Export Plug-In . SVG Version: 6.00 Build 0)  -->
<svg xmlns="http://www.w3.org/2000/svg" xmlns:xlink="http://www.w3.org/1999/xlink" version="1.1" id="Brightness_x2F_Contrast_10_xA0_Image" x="0px" y="0px" width="142" height="48" viewBox="0 0 142 48" style="enable-background:new 0 0 142 48;" xml:space="preserve">
<style type="text/css">
	.st0{fill:#ED1C24;}
</style>
<g>
	<path d="M109,1.8c-0.4,0.5-0.6,1.1-0.6,1.8c0,0.7,0.2,1.3,0.6,1.8c0.4,0.5,0.8,0.7,1.4,0.7c0.5,0,1-0.3,1.3-0.7   c0.4-0.5,0.6-1.1,0.6-1.8c0-0.7-0.2-1.3-0.6-1.8c-0.4-0.5-0.8-0.7-1.3-0.7C109.8,1,109.3,1.3,109,1.8z"></path>
	<g>
		<path d="M25.8,34.1c-0.6-0.7-1.2-2.1-2-4.3L14.9,1.9h-0.7l-9,27.5c-0.8,2.4-1.5,4-2.1,4.8c-0.3,0.4-1,0.7-2.1,1v0.9h8.1v-0.9    c-1.2-0.1-2-0.4-2.4-0.8c-0.4-0.4-0.6-0.8-0.6-1.3c0-0.6,0.2-1.6,0.6-2.9l1.7-5.3h9.9l1.5,4.8c0.5,1.6,0.8,2.7,0.8,3.4    c0,0.5-0.2,1-0.5,1.4c-0.4,0.4-1.1,0.6-2.1,0.7v0.9h10.1v-0.9C27.2,35.1,26.3,34.7,25.8,34.1z M9.1,23.1l4.5-13.5l4.3,13.5H9.1z"></path>
	</g>
	<g>
		<path d="M43,33.1c-0.6,0.3-1,0.4-1.4,0.4c-0.3,0-0.5-0.1-0.7-0.3c-0.2-0.2-0.4-0.6-0.5-1.2c-0.1-0.6-0.1-2.2-0.1-4.8V1h-0.9    l-5.2,2.8l0.2,0.9c0.5-0.3,1-0.4,1.3-0.4c0.3,0,0.6,0.1,0.8,0.3c0.2,0.2,0.4,0.6,0.4,1.2c0.1,0.6,0.1,2.2,0.1,4.8v4.2    c-1-1.3-2.3-1.9-3.8-1.9c-2.5,0-4.5,1.3-6,4c-1.6,2.7-2.4,5.6-2.4,8.9c0,3.2,0.7,5.9,2.1,7.9c1.4,2.1,3.1,3.1,5,3.1    c0.9,0,1.8-0.3,2.6-0.8c0.8-0.5,1.6-1.3,2.5-2.5v3.3h0.9l5.1-2.8L43,33.1z M37.2,31.8C36.1,33.3,35,34,33.9,34    c-1.4,0-2.6-0.9-3.7-2.6c-1.1-1.8-1.7-4.3-1.7-7.6c0-3.3,0.6-5.8,1.7-7.5c0.9-1.3,1.9-1.9,3-1.9c0.6,0,1.2,0.2,1.8,0.7    c0.6,0.5,1.1,1.2,1.5,2.1c0.4,0.9,0.6,1.9,0.7,3V31.8z"></path>
	</g>
	<path d="M41,14.4c0.6,0.1,1.1,0.3,1.3,0.4c0.4,0.3,0.7,0.6,1,1c0.3,0.4,0.5,1,0.8,1.9l6.2,19H51l6.1-19.4c0.4-1.1,0.8-2,1.2-2.5   c0.3-0.3,0.7-0.5,1.4-0.5v-0.9H54v0.9c0.7,0,1.1,0,1.3,0.1c0.2,0.1,0.4,0.3,0.5,0.5c0.1,0.1,0.2,0.3,0.2,0.6c0,0.5-0.1,1.2-0.4,2.1   l-4,12.9l-4-12.5c-0.3-0.8-0.4-1.5-0.4-2c0-0.5,0.1-0.9,0.4-1.3c0.3-0.3,0.6-0.5,1.1-0.5h0.5v-0.9H41V14.4z"></path>
	<g>
		<path d="M68.4,31.5c-0.8,0.8-1.8,1.2-2.9,1.2c-1.7,0-3.2-0.9-4.4-2.8c-1.2-1.9-1.9-4.4-1.9-7.7V22h11.9c0-2.8-0.6-5-1.9-6.7    c-1.2-1.7-2.8-2.5-4.8-2.5c-2.3,0-4.2,1.1-5.7,3.2c-1.5,2.2-2.3,5.2-2.3,9c0,3.6,0.7,6.4,2.2,8.5c1.5,2.1,3.3,3.2,5.3,3.2    c1.9,0,3.5-0.9,4.8-2.8c1.3-1.9,2-3.9,2.3-6.2l-0.6-0.5C69.9,29.3,69.2,30.7,68.4,31.5z M60.6,16.2c0.8-1,1.8-1.6,2.8-1.6    c0.7,0,1.3,0.3,1.9,0.8c0.6,0.5,1.1,1.2,1.4,2.2c0.2,0.6,0.3,1.6,0.4,3h-8C59.3,18.7,59.7,17.2,60.6,16.2z"></path>
	</g>
	<path d="M75.8,12.8l-5.2,2.8l0.2,0.9c0.5-0.2,0.9-0.4,1.3-0.4c0.3,0,0.6,0.1,0.8,0.3c0.2,0.2,0.4,0.6,0.5,1.1   c0.1,0.5,0.1,2.1,0.1,4.7V31c0,1.3,0,2.1-0.1,2.4c-0.1,0.6-0.3,1-0.7,1.3c-0.4,0.4-1.1,0.5-2,0.5v0.9h8.9v-0.9   c-0.8,0-1.4-0.1-1.8-0.4c-0.4-0.3-0.7-0.7-0.9-1.1c-0.2-0.6-0.4-1.6-0.4-2.8V20c0.6-1.5,1.2-2.7,1.8-3.3c0.3-0.3,0.5-0.5,0.7-0.5   c0.3,0,0.7,0.3,1.2,0.9c0.5,0.6,1,0.9,1.5,0.9c0.5,0,0.8-0.2,1.2-0.7c0.3-0.4,0.5-1,0.5-1.6c0-0.7-0.2-1.4-0.7-1.9   c-0.5-0.6-1-0.8-1.7-0.8c-1.5,0-3,1.7-4.5,5.1v-5.1H75.8z"></path>
	<path d="M105.7,1.9c-0.1,0.8-0.4,1.4-0.7,1.9c-0.3,0.3-0.6,0.5-0.9,0.5c-0.2,0-0.6-0.2-1.1-0.5c-1.8-1.2-3.6-1.8-5.5-1.8   c-2.4,0-4.6,0.8-6.6,2.3c-2,1.5-3.6,3.7-4.7,6.5c-1.1,2.8-1.7,5.9-1.7,9.2c0,4.1,0.9,7.7,2.6,10.8c2.3,4.1,5.6,6.2,9.9,6.2   c2.4,0,4.4-0.7,6.1-2.1c1.7-1.4,3.2-3.6,4.5-6.5l-0.6-0.5c-1.5,2.8-2.9,4.6-4.2,5.5c-1.3,0.9-2.7,1.4-4.4,1.4   c-1.9,0-3.6-0.6-5.1-1.8c-1.5-1.2-2.6-2.9-3.3-5.1c-0.7-2.2-1.1-4.8-1.1-7.8c0-3.7,0.4-6.7,1.2-9.2c0.8-2.5,1.9-4.2,3.2-5.4   c1.4-1.1,2.9-1.7,4.6-1.7c2,0,3.8,0.7,5.2,2.2c1.4,1.5,2.6,3.9,3.3,7.3h0.6l-0.6-11.3H105.7z"></path>
	<path class="st0" d="M109,1.8c-0.4,0.5-0.6,1.1-0.6,1.8c0,0.7,0.2,1.3,0.6,1.8c0.4,0.5,0.8,0.7,1.4,0.7c0.5,0,1-0.3,1.3-0.7   c0.4-0.5,0.6-1.1,0.6-1.8c0-0.7-0.2-1.3-0.6-1.8c-0.4-0.5-0.8-0.7-1.3-0.7C109.8,1,109.3,1.3,109,1.8z"></path>
	<path d="M111.1,12.8l-5.2,2.8l0.3,0.9c0.5-0.2,0.9-0.4,1.3-0.4c0.3,0,0.6,0.1,0.8,0.3c0.2,0.2,0.3,0.6,0.4,1.1   c0.1,0.7,0.2,2.3,0.2,4.8V31c0,1.4-0.1,2.3-0.3,2.8c-0.2,0.5-0.4,0.8-0.7,1.1c-0.3,0.2-0.9,0.3-1.7,0.3v0.9h8.4v-0.9   c-0.8,0-1.4-0.1-1.7-0.3c-0.3-0.2-0.5-0.6-0.7-1c-0.2-0.5-0.2-1.4-0.2-2.8V12.8H111.1z"></path>
	<path d="M123.6,15.2c0.2,0.2,0.4,0.6,0.6,1c0.4,0.8,0.7,1.4,0.9,1.9l6.2,17l-1.2,3.9c-0.5,1.5-0.9,2.4-1.4,3   c-0.4,0.5-0.9,0.8-1.2,0.8c-0.1,0-0.4-0.1-0.9-0.4c-0.7-0.4-1.3-0.5-1.7-0.5c-0.6,0-1.1,0.2-1.4,0.6c-0.3,0.4-0.5,1-0.5,1.7   c0,0.7,0.2,1.4,0.7,1.9c0.5,0.6,1.1,0.8,1.8,0.8c1,0,2.1-0.6,3.2-1.7c1.1-1.1,2-2.8,2.7-5l7.1-22.5c0.3-1,0.5-1.7,0.6-1.9   c0.3-0.5,0.6-0.9,0.8-1.1c0.3-0.2,0.6-0.3,1.1-0.4v-0.9h-5.6v0.9c0.5,0,0.9,0.1,1.1,0.2c0.2,0.1,0.4,0.3,0.5,0.4   c0.1,0.1,0.1,0.4,0.1,0.7c0,0.7-0.1,1.3-0.3,2l-3.9,12.5l-4.2-11.4c-0.4-1.1-0.6-2-0.6-2.7c0-0.5,0.1-0.9,0.4-1.2   c0.3-0.3,0.7-0.5,1.3-0.5h0.4v-0.9l-7,0h-4V6.1h-0.6c-0.5,1.7-0.9,2.8-1.2,3.4c-0.6,1.2-1.2,2.2-1.9,3.1c-0.7,0.9-1.4,1.5-2.1,1.8   v0.9h2.7v15.2c0,1.6,0.1,2.8,0.4,3.6c0.3,0.8,0.7,1.4,1.2,1.8c0.6,0.4,1.1,0.6,1.7,0.6c0.9,0,1.7-0.4,2.5-1.2   c0.8-0.8,1.4-2,1.9-3.6h-0.7c-0.2,0.7-0.5,1.2-0.9,1.5c-0.4,0.3-0.8,0.5-1.2,0.5c-0.5,0-0.9-0.3-1.2-0.8c-0.3-0.5-0.5-1.5-0.5-3   V15.2h4.2L123.6,15.2z"></path>
</g>
</svg>
