<?xml version="1.0" encoding="UTF-8"?>
<svg xmlns="http://www.w3.org/2000/svg" viewBox="41.928 63.898 416.781 93.148">
<g transform="matrix(1 0 0 -1 0 207.612)">
<path d="M0 0 C3.124 1.777 5.559 4.276 7.303 7.501 C9.046 10.724 9.918 14.442 9.918 18.653 C9.918 22.863 9.046 26.582 7.303 29.806 C5.559 33.029 3.124 35.53 0 37.307 C-3.126 39.083 -6.662 39.972 -10.61 39.972 C-14.624 39.972 -18.177 39.083 -21.269 37.307 C-24.362 35.53 -26.78 33.029 -28.523 29.806 C-30.267 26.582 -31.138 22.863 -31.138 18.653 C-31.138 14.442 -30.267 10.724 -28.523 7.501 C-26.78 4.276 -24.362 1.777 -21.269 0 C-18.177 -1.776 -14.624 -2.665 -10.61 -2.665 C-6.662 -2.665 -3.126 -1.776 0 0 M14.064 43.031 L14.064 -5.724 L10.116 -5.724 L10.017 5.132 C8.174 1.513 5.394 -1.332 1.678 -3.405 C-2.041 -5.478 -6.235 -6.514 -10.906 -6.514 C-15.643 -6.514 -19.855 -5.445 -23.539 -3.306 C-27.225 -1.169 -30.102 1.809 -32.175 5.626 C-34.247 9.441 -35.284 13.784 -35.284 18.653 C-35.284 23.522 -34.247 27.864 -32.175 31.681 C-30.102 35.496 -27.225 38.474 -23.539 40.613 C-19.855 42.75 -15.643 43.821 -10.906 43.821 C-6.235 43.821 -2.041 42.767 1.678 40.662 C5.394 38.556 8.174 35.694 10.017 32.076 L10.116 43.031 Z" fill="#FFFFFF" transform="matrix(1 0 0 1 77.212 79.976)"/>
<path d="M0 0 C3.124 1.777 5.559 4.276 7.303 7.501 C9.046 10.724 9.918 14.442 9.918 18.653 C9.918 22.863 9.046 26.582 7.303 29.806 C5.559 33.029 3.124 35.53 0 37.307 C-3.126 39.083 -6.662 39.972 -10.61 39.972 C-14.624 39.972 -18.177 39.083 -21.269 37.307 C-24.362 35.53 -26.78 33.029 -28.523 29.806 C-30.267 26.582 -31.138 22.863 -31.138 18.653 C-31.138 14.442 -30.267 10.724 -28.523 7.501 C-26.78 4.276 -24.362 1.777 -21.269 0 C-18.177 -1.776 -14.624 -2.665 -10.61 -2.665 C-6.662 -2.665 -3.126 -1.776 0 0 M14.064 63.362 L14.064 -5.724 L10.116 -5.724 L10.017 5.034 C8.174 1.48 5.394 -1.332 1.678 -3.405 C-2.041 -5.478 -6.235 -6.514 -10.906 -6.514 C-15.579 -6.514 -19.773 -5.445 -23.49 -3.306 C-27.208 -1.169 -30.102 1.809 -32.175 5.626 C-34.247 9.441 -35.284 13.784 -35.284 18.653 C-35.284 23.522 -34.247 27.864 -32.175 31.681 C-30.102 35.496 -27.208 38.474 -23.49 40.613 C-19.773 42.75 -15.579 43.821 -10.906 43.821 C-6.235 43.821 -2.058 42.8 1.628 40.761 C5.312 38.721 8.076 35.925 9.918 32.372 L9.918 63.362 Z" fill="#FFFFFF" transform="matrix(1 0 0 1 135.539 79.976)"/>
<path d="M0 0 L4.54 0 L-15.988 -48.755 L-20.528 -48.755 L-40.958 0 L-36.418 0 L-27.536 -21.417 L-18.258 -43.919 L-8.882 -21.417 Z" fill="#FFFFFF" transform="matrix(1 0 0 1 198.555 123.007)"/>
<path d="M0 0 C-3.686 -3.521 -5.758 -8.143 -6.218 -13.867 L34.543 -13.867 C34.543 -10.116 33.67 -6.794 31.928 -3.898 C30.184 -1.004 27.782 1.249 24.723 2.862 C21.663 4.474 18.125 5.28 14.113 5.28 C8.389 5.28 3.684 3.519 0 0 M26.993 6.119 C30.709 4.111 33.571 1.298 35.579 -2.319 C37.585 -5.938 38.589 -10.116 38.589 -14.854 C38.589 -16.104 38.556 -17.059 38.491 -17.716 L-6.218 -17.716 C-5.758 -23.835 -3.686 -28.671 0 -32.224 C3.684 -35.777 8.454 -37.553 14.311 -37.553 C17.928 -37.553 21.383 -36.83 24.673 -35.382 C27.963 -33.936 30.497 -32.026 32.273 -29.658 L35.234 -32.125 C32.93 -35.021 29.937 -37.307 26.252 -38.984 C22.567 -40.662 18.587 -41.501 14.311 -41.501 C9.573 -41.501 5.329 -40.416 1.579 -38.244 C-2.171 -36.073 -5.1 -33.063 -7.205 -29.214 C-9.312 -25.365 -10.363 -21.006 -10.363 -16.137 C-10.363 -11.268 -9.327 -6.926 -7.254 -3.109 C-5.182 0.706 -2.287 3.701 1.431 5.872 C5.147 8.043 9.376 9.129 14.113 9.129 C18.981 9.129 23.275 8.125 26.993 6.119" fill="#FFFFFF" transform="matrix(1 0 0 1 215.728 114.766)"/>
<path d="M0 0 L-1.875 -3.553 C-4.31 -2.106 -7.042 -1.382 -10.067 -1.382 C-13.094 -1.382 -15.875 -2.27 -18.407 -4.046 C-20.94 -5.823 -22.931 -8.258 -24.377 -11.35 C-25.826 -14.443 -26.549 -17.832 -26.549 -21.516 L-26.549 -46.584 L-30.694 -46.584 L-30.694 2.171 L-26.746 2.171 L-26.746 -8.685 C-25.036 -5.132 -22.717 -2.354 -19.789 -0.346 C-16.861 1.661 -13.587 2.665 -9.968 2.665 C-6.087 2.665 -2.764 1.776 0 0" fill="#FFFFFF" transform="matrix(1 0 0 1 293.202 120.836)"/>
<path d="M0 0 C-3.849 2.137 -6.876 5.132 -9.08 8.981 C-11.285 12.83 -12.386 17.188 -12.386 22.058 C-12.386 27.058 -11.285 31.467 -9.08 35.283 C-6.876 39.099 -3.866 42.059 -0.049 44.166 C3.766 46.271 8.076 47.324 12.88 47.324 C19.656 47.324 25.446 44.921 30.25 40.119 L27.486 37.356 C25.578 39.395 23.357 40.909 20.825 41.896 C18.291 42.883 15.609 43.376 12.781 43.376 C8.898 43.376 5.362 42.537 2.171 40.859 C-1.021 39.182 -3.553 36.73 -5.428 33.507 C-7.303 30.282 -8.241 26.465 -8.241 22.058 C-8.241 17.78 -7.303 14.03 -5.428 10.807 C-3.553 7.583 -1.004 5.098 2.221 3.355 C5.444 1.611 8.997 0.74 12.88 0.74 C15.708 0.74 18.422 1.249 21.022 2.27 C23.621 3.289 25.94 4.819 27.98 6.859 L30.744 3.898 C28.309 1.595 25.545 -0.165 22.453 -1.382 C19.36 -2.599 16.169 -3.208 12.88 -3.208 C8.143 -3.208 3.849 -2.139 0 0" fill="#FFFFFF" transform="matrix(1 0 0 1 326.806 76.571)"/>
<path d="M365.839 123.007 h4.146 v-48.755 h-4.146 Z M365.198 135.591 C364.507 136.282 364.161 137.153 364.161 138.206 C364.161 139.258 364.507 140.146 365.198 140.871 C365.889 141.594 366.792 141.957 367.912 141.957 C368.964 141.957 369.852 141.594 370.577 140.871 C371.3 140.146 371.662 139.258 371.662 138.206 C371.662 137.153 371.3 136.282 370.577 135.591 C369.852 134.9 368.964 134.554 367.912 134.554 C366.792 134.554 365.889 134.9 365.198 135.591" fill="#FFFFFF" transform="matrix(1 0 0 1 0 0)"/>
<path d="M0 0 C-3.553 -1.776 -6.876 -2.665 -9.968 -2.665 C-14.903 -2.665 -18.357 -1.381 -20.331 1.185 C-22.305 3.75 -23.292 7.632 -23.292 12.831 L-23.292 43.13 L-33.753 43.13 L-33.753 46.979 L-23.292 46.979 L-23.292 61.388 L-19.147 61.783 L-19.147 46.979 L-2.27 46.979 L-2.27 43.13 L-19.147 43.13 L-19.147 12.831 C-19.147 8.947 -18.522 6.021 -17.271 4.046 C-16.022 2.073 -13.587 1.086 -9.968 1.086 C-8.85 1.086 -7.501 1.315 -5.922 1.777 C-4.343 2.236 -2.896 2.796 -1.579 3.455 Z" fill="#FFFFFF" transform="matrix(1 0 0 1 411.336 76.028)"/>
<path d="M0 0 L4.54 0 L-27.042 -72.441 L-31.582 -72.441 L-21.121 -48.459 L-41.55 0 L-37.01 0 L-25.266 -28.227 L-18.851 -43.524 Z" fill="#FFFFFF" transform="matrix(1 0 0 1 454.169 123.007)"/>
<path d="M0 0 C0 -3.882 -3.147 -7.029 -7.029 -7.029 C-10.911 -7.029 -14.058 -3.882 -14.058 0 C-14.058 3.882 -10.911 7.029 -7.029 7.029 C-3.147 7.029 0 3.882 0 0" fill="#FF0000" transform="matrix(1 0 0 1 374.776 136.685)"/>
</g></svg>