<?xml version="1.0" encoding="UTF-8"?>
<svg version="1.1" xmlns="http://www.w3.org/2000/svg" width="1254" height="1254">
<rect width="1254" height="1254" rx="216" ry="216" fill="#FF0000"/>
<path d="M0 0 C3.09949081 0.01605072 6.19766786 0.0000577 9.29711914 -0.01904297 C81.4773579 -0.09526625 144.53758256 31.01089223 194.92871094 81.26513672 C201.13325397 87.57039074 206.54778172 94.2854066 211.79907227 101.39111328 C212.45649414 102.24189453 213.11391602 103.09267578 213.79125977 103.96923828 C223.47092976 116.74158292 231.67763085 130.71337141 238.86157227 145.01611328 C239.30218994 145.89114502 239.74280762 146.76617676 240.19677734 147.66772461 C242.76329001 152.9024972 244.89998341 158.18289121 246.82836914 163.68334961 C247.7663129 166.29973146 248.79440988 168.85866738 249.85766602 171.42626953 C251.89531173 176.46812373 253.41868729 181.58989074 254.86157227 186.82861328 C255.10456055 187.69292969 255.34754883 188.55724609 255.59790039 189.44775391 C256.09015541 191.20394222 256.57743642 192.96153209 257.05981445 194.72045898 C257.55714529 196.51712411 258.06848885 198.309963 258.59301758 200.09887695 C260.4761848 206.6403745 261.63595908 213.0713654 262.42407227 219.82861328 C262.61126831 221.40582153 262.61126831 221.40582153 262.80224609 223.01489258 C263.91921077 232.81408968 264.56936312 242.5339345 264.79907227 252.39111328 C264.83693848 253.61636719 264.87480469 254.84162109 264.91381836 256.10400391 C265.41335048 272.93148807 264.99591167 289.33997921 262.54907227 306.01611328 C262.44665222 306.72043488 262.34423218 307.42475647 262.2387085 308.15042114 C254.29725022 361.53153387 231.68170853 412.73863477 194.79907227 452.39111328 C193.62785078 453.74134241 192.46099994 455.09537819 191.29907227 456.45361328 C165.89023126 485.55935263 130.26521281 507.0290661 94.03149414 519.60498047 C92.0906829 520.2884245 90.16928401 521.02651531 88.25219727 521.77392578 C79.53118611 525.02895107 70.53580278 526.79948659 61.42407227 528.57861328 C60.14677246 528.82885254 58.86947266 529.0790918 57.5534668 529.33691406 C41.19589427 532.41292802 25.31539738 533.74539262 8.67407227 533.64111328 C7.77488068 533.63767914 6.87568909 533.634245 5.94924927 533.63070679 C-20.32626461 533.51326097 -44.85484974 530.55808784 -70.20092773 523.39111328 C-70.87994141 523.20057373 -71.55895508 523.01003418 -72.25854492 522.8137207 C-110.85806041 511.78747242 -146.37253137 490.15697732 -175.20092773 462.39111328 C-175.8602832 461.75898926 -176.51963867 461.12686523 -177.19897461 460.47558594 C-186.68723079 451.33113849 -195.42713213 442.03377319 -203.20092773 431.39111328 C-204.05898925 430.24006312 -204.91706224 429.08902151 -205.77514648 427.93798828 C-211.81291953 419.748058 -217.19348367 411.24488573 -222.20092773 402.39111328 C-222.59779785 401.69453613 -222.99466797 400.99795898 -223.40356445 400.28027344 C-230.98765469 386.83588658 -236.78748709 372.82941676 -242.20092773 358.39111328 C-242.4998291 357.60978027 -242.79873047 356.82844727 -243.10668945 356.0234375 C-246.91816411 345.9599483 -249.47204275 335.61377034 -251.88842773 325.14111328 C-252.17419678 323.9169873 -252.45996582 322.69286133 -252.75439453 321.43164062 C-256.91068522 302.75816818 -258.73285441 284.32127748 -258.57592773 265.20361328 C-258.57260437 264.23529572 -258.56928101 263.26697815 -258.56585693 262.26931763 C-258.40341389 221.76310265 -258.40341389 221.76310265 -254.20532227 213.41015625 C-253.02985845 211.04722826 -252.67812576 208.97739363 -252.27905273 206.37158203 C-251.25103871 200.34249976 -249.69129369 194.56216246 -247.95092773 188.70361328 C-247.63792725 187.64907959 -247.32492676 186.5945459 -247.00244141 185.50805664 C-235.99074303 148.92260433 -217.32480875 116.07202664 -192.20092773 87.39111328 C-191.4287793 86.50681641 -190.65663086 85.62251953 -189.86108398 84.71142578 C-181.3172675 75.07147818 -172.34121346 66.33958569 -162.20092773 58.39111328 C-161.6045752 57.91303223 -161.00822266 57.43495117 -160.39379883 56.94238281 C-115.07004792 20.62608278 -58.19843781 -0.35645686 0 0 Z " fill="#FF0000" transform="translate(625.200927734375,361.60888671875)"/>
<path d="M0 0 C1.19459839 0.00182281 2.38919678 0.00364563 3.61999512 0.00552368 C21.11057376 0.05048473 38.28046965 0.38797486 55.5625 3.3125 C56.73731934 3.51069336 57.91213867 3.70888672 59.12255859 3.91308594 C79.45923803 7.43800307 79.45923803 7.43800307 86.5625 10.3125 C88.61586366 10.75010209 90.66923551 11.1876658 92.72265625 11.625 C108.29604284 15.39517337 123.0703847 21.50615752 137.58496094 28.19042969 C141.85647665 30.14827799 146.05620228 31.9422924 150.5625 33.3125 C150.5625 33.9725 150.5625 34.6325 150.5625 35.3125 C151.38105469 35.55226563 152.19960938 35.79203125 153.04296875 36.0390625 C157.23675855 37.55646036 160.98656533 39.51933146 164.875 41.6875 C165.6589917 42.12449219 166.4429834 42.56148438 167.25073242 43.01171875 C175.77655933 47.86360702 183.69708773 53.46623874 191.5625 59.3125 C192.16465332 59.75625977 192.76680664 60.20001953 193.38720703 60.65722656 C200.28937344 65.7617724 206.80839646 71.17936911 213.09375 77.03125 C215.14294082 78.92480608 217.2299028 80.7184786 219.375 82.5 C234.14829554 95.39636045 247.22295641 111.66711131 257.5625 128.3125 C257.5625 128.9725 257.5625 129.6325 257.5625 130.3125 C258.2225 130.3125 258.8825 130.3125 259.5625 130.3125 C259.5625 91.7025 259.5625 53.0925 259.5625 13.3125 C283.9825 13.3125 308.4025 13.3125 333.5625 13.3125 C333.5625 228.1425 333.5625 442.9725 333.5625 664.3125 C308.8125 664.3125 284.0625 664.3125 258.5625 664.3125 C258.2325 625.3725 257.9025 586.4325 257.5625 546.3125 C254.9225 549.9425 252.2825 553.5725 249.5625 557.3125 C247.54293781 559.92131101 245.51909471 562.50542949 243.4375 565.0625 C242.89399902 565.73079834 242.35049805 566.39909668 241.79052734 567.08764648 C232.25448417 578.67256577 221.88793439 590.44410055 210.125 599.8125 C206.97626117 602.34083955 203.90333145 604.88577141 200.9375 607.625 C177.14026352 628.56850284 146.78650603 643.68633293 117.5625 655.3125 C116.70398438 655.65764648 115.84546875 656.00279297 114.9609375 656.35839844 C92.01400723 665.47723453 67.98784819 670.94953388 43.5625 674.3125 C42.40089355 674.48982666 41.23928711 674.66715332 40.04248047 674.84985352 C27.63756936 676.62673687 15.23992438 676.65073824 2.72753906 676.62817383 C-0.90330517 676.62502961 -4.53331922 676.6484985 -8.1640625 676.67382812 C-23.79206746 676.71531072 -38.97970422 675.59941287 -54.4375 673.3125 C-55.22131042 673.19696777 -56.00512085 673.08143555 -56.81268311 672.96240234 C-80.55280177 669.39988348 -105.76958366 664.18409084 -127.43359375 653.7109375 C-130.19717435 652.42438112 -132.93283256 651.3674038 -135.8125 650.375 C-146.13540791 646.75292705 -155.9860053 641.7918549 -165.4375 636.3125 C-166.48164063 635.72855469 -167.52578125 635.14460937 -168.6015625 634.54296875 C-196.80908318 618.74134947 -221.84573079 598.89494104 -244.75 576.125 C-245.40806641 575.47168701 -246.06613281 574.81837402 -246.74414062 574.14526367 C-251.17645998 569.69781886 -255.36704649 565.09252047 -259.4375 560.3125 C-259.94595459 559.71606689 -260.45440918 559.11963379 -260.97827148 558.50512695 C-277.66313787 538.73460973 -292.47930493 517.21537794 -303.68359375 493.86328125 C-304.90465882 491.39123638 -306.14418646 489.05574321 -307.53515625 486.6875 C-309.16954975 483.78787786 -310.37122041 481.13695648 -311.4375 478 C-312.65866664 474.50689543 -313.91632177 471.05198292 -315.3125 467.625 C-316.02178863 465.85454908 -316.73001383 464.08367197 -317.4375 462.3125 C-317.89125 461.18714844 -318.345 460.06179688 -318.8125 458.90234375 C-323.26666244 447.61463972 -326.48048141 436.07199413 -329.4375 424.3125 C-329.66856445 423.39629883 -329.89962891 422.48009766 -330.13769531 421.53613281 C-333.36345191 408.55465453 -335.59065091 395.60976751 -337.12792969 382.32348633 C-337.41045194 380.11329996 -337.41045194 380.11329996 -338.4375 377.3125 C-339.40307321 368.90296424 -339.59643781 360.46807397 -339.60546875 352.01171875 C-339.60879715 350.89166946 -339.61212555 349.77162018 -339.61555481 348.61763 C-339.62057684 346.26730759 -339.62296461 343.91697816 -339.62280273 341.56665039 C-339.62498834 338.01892069 -339.64319303 334.47150304 -339.66210938 330.92382812 C-339.69175991 318.86055327 -339.31432555 307.23385033 -337.4375 295.3125 C-337.10764064 292.73103709 -336.80499616 290.14708543 -336.5 287.5625 C-335.76204901 282.04516327 -334.65020325 276.78776403 -333.203125 271.41796875 C-332.36645561 268.02433527 -331.81230191 264.63700594 -331.25 261.1875 C-329.94038393 253.64099016 -327.80455497 246.37944508 -325.5625 239.0625 C-325.23483643 237.98597168 -324.90717285 236.90944336 -324.56958008 235.80029297 C-322.26637001 228.4455518 -319.50908921 221.37812823 -316.4375 214.3125 C-314.65283007 210.17416364 -312.93306083 206.02239287 -311.29614258 201.82275391 C-301.69083528 177.56942661 -287.99066343 155.17987032 -272.4375 134.3125 C-272.03853516 133.77463867 -271.63957031 133.23677734 -271.22851562 132.68261719 C-268.36468372 128.83881059 -265.43116671 125.05599283 -262.4375 121.3125 C-262.01871582 120.78785156 -261.59993164 120.26320313 -261.16845703 119.72265625 C-254.54830409 111.52078559 -247.30035401 103.97449382 -239.875 96.5 C-239.01285889 95.62859375 -238.15071777 94.7571875 -237.26245117 93.859375 C-231.29518916 87.92092397 -225.01436429 82.56047071 -218.4375 77.3125 C-217.26385882 76.33570611 -216.09279853 75.35579197 -214.92578125 74.37109375 C-191.45719916 54.85904108 -164.45257914 38.57880406 -136.0625 27.375 C-131.99212809 25.76499908 -127.95675641 24.12545679 -124 22.25 C-118.10953514 19.58448238 -111.87326755 17.8771727 -105.69677734 16.00976562 C-103.35765277 15.28785729 -101.03207443 14.53161102 -98.70703125 13.765625 C-89.03055467 10.59017847 -79.4922686 8.0270095 -69.4375 6.3125 C-67.57159492 5.98057928 -65.70571115 5.64853875 -63.83984375 5.31640625 C-61.78931791 4.95946709 -59.73853491 4.60400222 -57.6875 4.25 C-56.29688354 4.00612549 -56.29688354 4.00612549 -54.87817383 3.75732422 C-36.57529201 0.68837192 -18.54035835 -0.05859074 0 0 Z M-50.4375 76.3125 C-52.22642619 76.6790513 -54.01548822 77.04494027 -55.8046875 77.41015625 C-75.71732928 81.66127287 -95.15759247 88.35725068 -113.4375 97.3125 C-114.26846191 97.71839355 -115.09942383 98.12428711 -115.95556641 98.54248047 C-133.69975629 107.30736474 -150.10042941 117.8013 -165.4375 130.3125 C-165.99356934 130.76560547 -166.54963867 131.21871094 -167.12255859 131.68554688 C-180.1556896 142.39408731 -192.03575357 154.01124141 -202.4375 167.3125 C-203.41396484 168.488125 -203.41396484 168.488125 -204.41015625 169.6875 C-210.33504154 176.84919038 -215.46231685 184.47391582 -220.4375 192.3125 C-220.84226562 192.95010254 -221.24703125 193.58770508 -221.6640625 194.24462891 C-238.60433956 221.26027236 -251.60278092 252.0245181 -257.078125 283.5625 C-257.4375 285.3125 -257.4375 285.3125 -258.4375 287.3125 C-264.55052252 318.61439875 -264.04521412 354.21647498 -257.4375 385.3125 C-257.01904867 387.49314788 -256.60244041 389.67415008 -256.1875 391.85546875 C-246.29260996 441.77820773 -222.77579373 488.62189541 -187.4375 525.3125 C-186.80537598 525.97185547 -186.17325195 526.63121094 -185.52197266 527.31054688 C-176.37509947 536.80132 -167.07304306 545.52570776 -156.4375 553.3125 C-155.34469886 554.13494754 -154.25225034 554.95786382 -153.16015625 555.78125 C-119.17872311 581.0647567 -80.6906777 595.77927586 -39.25 603 C-38.25516602 603.17909912 -38.25516602 603.17909912 -37.24023438 603.36181641 C-24.19897012 605.52596473 -10.90520517 605.49901615 2.27734375 605.49780273 C4.92724641 605.49999153 7.57673274 605.51823804 10.2265625 605.53710938 C21.15025593 605.57431057 31.76042073 604.94270157 42.5625 603.3125 C43.80370605 603.12582764 45.04491211 602.93915527 46.32373047 602.74682617 C83.11053619 596.81196669 117.83066763 583.58787204 148.5625 562.3125 C149.3452832 561.77544434 150.12806641 561.23838867 150.93457031 560.68505859 C163.14243601 552.23326955 174.10164262 542.83983462 184.5625 532.3125 C185.44760254 531.42328857 185.44760254 531.42328857 186.35058594 530.51611328 C216.10401909 500.29378649 236.3597707 462.32162322 249.5625 422.3125 C249.94462646 421.18908203 249.94462646 421.18908203 250.33447266 420.04296875 C255.90759023 403.4229232 257.97167137 385.59478502 260.5625 368.3125 C260.69060059 367.48806396 260.81870117 366.66362793 260.95068359 365.81420898 C261.99236687 358.10851828 261.71557891 350.26049967 261.6875 342.5 C261.68561676 341.71805267 261.68373352 340.93610535 261.68179321 340.13046265 C261.6479837 328.17153133 261.59387005 316.23456075 260.5625 304.3125 C260.44914307 302.96115967 260.44914307 302.96115967 260.33349609 301.58251953 C258.87285238 285.2953794 255.28490056 269.94722059 250.5625 254.3125 C250.31677246 253.49765137 250.07104492 252.68280273 249.81787109 251.84326172 C247.85932537 245.45376954 245.79541458 239.19832057 242.57910156 233.31567383 C241.49297997 231.17551349 240.64168745 229.01658192 239.7890625 226.7734375 C228.64766374 198.64146978 210.57663819 172.9184121 189.5625 151.3125 C188.95003418 150.67425293 188.33756836 150.03600586 187.70654297 149.37841797 C179.40784777 140.74901511 170.95929553 132.73270622 161.32324219 125.61572266 C159.49696668 124.26399517 157.68958921 122.88937411 155.8828125 121.51171875 C147.45485856 115.14102518 138.75670587 109.50871828 129.5625 104.3125 C128.93214844 103.94946777 128.30179688 103.58643555 127.65234375 103.21240234 C88.61067287 80.86203167 45.15439437 71.85673926 0.5625 71.9375 C-1.05791199 71.93781723 -1.05791199 71.93781723 -2.71105957 71.93814087 C-18.98620276 71.96992002 -34.50611955 72.74187569 -50.4375 76.3125 Z " fill="#FDFCFC" transform="translate(628.4375,289.6875)"/>
<path d="M0 0 C0.66 0.33 1.32 0.66 2 1 C-3.86987852 7.6272822 -12.24384685 12.35926767 -21 14 C-22.34120483 13.69990253 -23.67647341 13.37035964 -25 13 C-24.27820557 12.64172119 -23.55641113 12.28344238 -22.81274414 11.91430664 C-19.56163067 10.29910544 -16.3120494 8.6808454 -13.0625 7.0625 C-11.35803711 6.21655273 -11.35803711 6.21655273 -9.61914062 5.35351562 C-8.53955078 4.81533203 -7.45996094 4.27714844 -6.34765625 3.72265625 C-5.34742432 3.22515869 -4.34719238 2.72766113 -3.31665039 2.21508789 C-1.09956217 1.1988143 -1.09956217 1.1988143 0 0 Z " fill="#F9262F" transform="translate(788,924)"/>
<path d="M0 0 C0.33 0 0.66 0 1 0 C1 10.56 1 21.12 1 32 C-0.485 32.495 -0.485 32.495 -2 33 C-2.04938149 28.62176083 -2.0857104 24.24366854 -2.10986328 19.86523438 C-2.11993043 18.3752968 -2.13358518 16.88537903 -2.15087891 15.39550781 C-2.17509653 13.25580972 -2.18647564 11.11637247 -2.1953125 8.9765625 C-2.21102295 7.04417725 -2.21102295 7.04417725 -2.22705078 5.07275391 C-2 2 -2 2 0 0 Z " fill="#F71D2C" transform="translate(288,608)"/>
<path d="M0 0 C0 3.73869249 -0.90485692 4.36550705 -3.375 7.0625 C-4.31472656 8.10083984 -4.31472656 8.10083984 -5.2734375 9.16015625 C-6.49397067 10.46076965 -7.73879097 11.73879097 -9 13 C-9.99 12.67 -10.98 12.34 -12 12 C-8 8 -4 4 0 0 Z " fill="#F61521" transform="translate(88,86)"/>
<path d="M0 0 C0.66 0.33 1.32 0.66 2 1 C-0.26900223 5.53800446 -3.56268219 9.46166336 -8 12 C-10.22265625 11.6640625 -10.22265625 11.6640625 -12 11 C-11.30132812 10.37351562 -10.60265625 9.74703125 -9.8828125 9.1015625 C-8.97273438 8.28429687 -8.06265625 7.46703125 -7.125 6.625 C-5.76761719 5.40683594 -5.76761719 5.40683594 -4.3828125 4.1640625 C-2.89103817 2.80923795 -1.42494565 1.42494565 0 0 Z " fill="#F61B26" transform="translate(101,73)"/>
<path d="M0 0 C0.91525561 3.08898768 1 5.79359799 1 9 C1.33 9.99 1.66 10.98 2 12 C1.34 12.66 0.68 13.32 0 14 C-0.64767793 16.57061311 -0.64767793 16.57061311 -1 19 C-1.33 19 -1.66 19 -2 19 C-1.8595017 16.2079699 -1.71284617 13.41650204 -1.5625 10.625 C-1.52318359 9.8309375 -1.48386719 9.036875 -1.44335938 8.21875 C-1.11328125 2.2265625 -1.11328125 2.2265625 0 0 Z " fill="#F6646C" transform="translate(371,575)"/>
<path d="M0 0 C4.8274799 1.41292095 8.7162359 3.42974154 13 6 C13 6.66 13 7.32 13 8 C8.77096401 6.69101267 4.83550432 5.22994437 1 3 C0.67 2.01 0.34 1.02 0 0 Z " fill="#F72A35" transform="translate(778,322)"/>
<path d="M0 0 C-2.33659163 2.33659163 -3.82661654 3.08324478 -7 4 C-10.8125 3.625 -10.8125 3.625 -14 3 C-4.91666667 -1.89102564 -4.91666667 -1.89102564 0 0 Z " fill="#F72C35" transform="translate(723,954)"/>
<path d="M0 0 C-2.21953964 2.21953964 -3.91053654 2.91824754 -6.8125 4.0625 C-8.09060547 4.57490234 -8.09060547 4.57490234 -9.39453125 5.09765625 C-11.92216051 5.97304209 -14.36794434 6.54163483 -17 7 C-14.11814245 4.72660889 -11.20291993 2.92457432 -7.9375 1.25 C-7.08027344 0.80140625 -6.22304688 0.3528125 -5.33984375 -0.109375 C-3 -1 -3 -1 0 0 Z " fill="#F61920" transform="translate(484,321)"/>
<path d="M0 0 C0 0.99 0 1.98 0 3 C-1.42578125 4.421875 -1.42578125 4.421875 -3.3125 5.75 C-3.92738281 6.19859375 -4.54226563 6.6471875 -5.17578125 7.109375 C-7 8 -7 8 -10 7 C-6.80331012 4.3513141 -3.60513403 2.06007659 0 0 Z " fill="#F81623" transform="translate(496,397)"/>
<path d="M0 0 C0 0.99 0 1.98 0 3 C-6.45 5.23269231 -6.45 5.23269231 -9.234375 4.0546875 C-9.81703125 3.70664062 -10.3996875 3.35859375 -11 3 C-9.54293274 2.49632243 -8.08429904 1.99717444 -6.625 1.5 C-5.81289063 1.2215625 -5.00078125 0.943125 -4.1640625 0.65625 C-2 0 -2 0 0 0 Z " fill="#F81B25" transform="translate(549,374)"/>
<path d="M0 0 C0.66 0.33 1.32 0.66 2 1 C0.375 3.0625 0.375 3.0625 -2 5 C-5.25 4.75 -5.25 4.75 -8 4 C-5.31143836 2.20762558 -3.0466145 1.01553817 0 0 Z M-6 5 C-4 6 -4 6 -4 6 Z " fill="#F84047" transform="translate(756,940)"/>
<path d="M0 0 C0.66 0 1.32 0 2 0 C0.94124926 3.40312738 -0.00902154 6.01353231 -2 9 C-2.66 9 -3.32 9 -4 9 C-2.94124926 5.59687262 -1.99097846 2.98646769 0 0 Z " fill="#F61D29" transform="translate(49,134)"/>
<path d="M0 0 C0.66 0.33 1.32 0.66 2 1 C-1.32307692 5.8 -1.32307692 5.8 -4.75 6.8125 C-5.4925 6.874375 -6.235 6.93625 -7 7 C-4.66666667 4.66666667 -2.33333333 2.33333333 0 0 Z " fill="#F91E2A" transform="translate(112,64)"/>
<path d="M0 0 C0.66 0.33 1.32 0.66 2 1 C0.9375 2.5 0.9375 2.5 -1 4 C-4.6875 4.1875 -4.6875 4.1875 -8 4 C-5.31143836 2.20762558 -3.0466145 1.01553817 0 0 Z " fill="#F94045" transform="translate(746,944)"/>
<path d="M0 0 C0.66 0.33 1.32 0.66 2 1 C-0.06756277 3.7972908 -1.14440371 4.02692273 -4.6875 4.6875 C-5.780625 4.790625 -6.87375 4.89375 -8 5 C-5.45378681 2.99940392 -3.01962385 1.20784954 0 0 Z " fill="#FA393F" transform="translate(771,933)"/>
<path d="M0 0 C0.53625 0.2475 1.0725 0.495 1.625 0.75 C0.965 1.41 0.305 2.07 -0.375 2.75 C-1.695 2.75 -3.015 2.75 -4.375 2.75 C-4.375 3.41 -4.375 4.07 -4.375 4.75 C-5.695 4.42 -7.015 4.09 -8.375 3.75 C-2.95961538 -0.31153846 -2.95961538 -0.31153846 0 0 Z " fill="#F92129" transform="translate(805.375,915.25)"/>
<path d="M0 0 C0 0.66 0 1.32 0 2 C-1.8125 3.0625 -1.8125 3.0625 -4 4 C-7 3 -7 3 -9 1 C-5.846632 0.29925156 -3.27275026 0 0 0 Z " fill="#F4252F" transform="translate(709,957)"/>
<path d="M0 0 C-2.91708924 1.98362069 -4.12380904 1.9876191 -7.75 1.625 C-8.8225 1.41875 -9.895 1.2125 -11 1 C-7.2297564 -1.56376565 -4.32597804 -0.83191885 0 0 Z " fill="#F51C29" transform="translate(571,370)"/>
</svg>
