<svg xmlns="http://www.w3.org/2000/svg" width="512" height="512" viewBox="0 0 512 512">
  <rect width="512" height="512" rx="128" fill="#ffffff"/>
  <g transform="translate(68, 36) scale(12.5)">
    <path d="M25.8,34.1c-0.6-0.7-1.2-2.1-2-4.3L14.9,1.9h-0.7l-9,27.5c-0.8,2.4-1.5,4-2.1,4.8c-0.3,0.4-1,0.7-2.1,1v0.9h8.1v-0.9c-1.2-0.1-2-0.4-2.4-0.8c-0.4-0.4-0.6-0.8-0.6-1.3c0-0.6,0.2-1.6,0.6-2.9l1.7-5.3h9.9l1.5,4.8c0.5,1.6,0.8,2.7,0.8,3.4c0,0.5-0.2,1-0.5,1.4c-0.4,0.4-1.1,0.6-2.1,0.7v0.9h10.1v-0.9C27.2,35.1,26.3,34.7,25.8,34.1z M9.1,23.1l4.5-13.5l4.3,13.5H9.1z" fill="#1a1a1a"/>
  </g>
  <circle cx="390" cy="100" r="32" fill="#ED1C24"/>
</svg>
